<svg width="71" height="67" viewBox="0 0 71 67" fill="none" xmlns="http://www.w3.org/2000/svg">
<g filter="url(#filter0_i_1_46)">
<path d="M35.6564 33.0139C33.0103 33.0139 30.3636 32.0452 28.3496 30.1079C24.3203 26.2337 24.3203 19.9295 28.3496 16.0548C30.3009 14.1778 32.896 13.1442 35.6564 13.1442C38.4168 13.1442 41.0113 14.1783 42.9632 16.0548C46.9924 19.9295 46.9924 26.2337 42.9632 30.1079C40.9486 32.0452 38.3025 33.0139 35.6564 33.0139ZM35.6564 17.0777C34.0569 17.0777 32.4575 17.663 31.2397 18.8341C28.804 21.1762 28.804 24.987 31.2397 27.3292C32.4192 28.4635 33.9878 29.0881 35.6564 29.0881C37.325 29.0881 38.8936 28.4635 40.0731 27.3292C42.5087 24.987 42.5087 21.1762 40.0731 18.8341C38.8553 17.663 37.2558 17.0777 35.6564 17.0777Z" fill="#34BCF6"/>
<path d="M35.6803 67L34.1 65.215C33.1751 64.1697 11.4385 39.4291 11.4385 23.2889C11.4385 10.4473 22.3025 0 35.6564 0C49.0102 0 59.8743 10.4473 59.8743 23.2889C59.8743 38.6352 38.1568 64.115 37.2325 65.192L35.6803 67ZM35.6564 3.93038C24.5563 3.93038 15.5257 12.6146 15.5257 23.2889C15.5257 29.288 19.2455 37.9697 26.2834 48.396C29.9357 53.8067 33.6136 58.3888 35.6341 60.8138C37.6577 58.3224 41.3707 53.5895 45.0459 48.076C52.0731 37.5352 55.7871 28.9634 55.7871 23.2889C55.7871 12.6146 46.7564 3.93038 35.6564 3.93038Z" fill="#34BCF6"/>
</g>
<defs>
<filter id="filter0_i_1_46" x="0.688232" y="0" width="69.6726" height="71" filterUnits="userSpaceOnUse" color-interpolation-filters="sRGB">
<feFlood flood-opacity="0" result="BackgroundImageFix"/>
<feBlend mode="normal" in="SourceGraphic" in2="BackgroundImageFix" result="shape"/>
<feColorMatrix in="SourceAlpha" type="matrix" values="0 0 0 0 0 0 0 0 0 0 0 0 0 0 0 0 0 0 127 0" result="hardAlpha"/>
<feOffset dy="4"/>
<feGaussianBlur stdDeviation="2"/>
<feComposite in2="hardAlpha" operator="arithmetic" k2="-1" k3="1"/>
<feColorMatrix type="matrix" values="0 0 0 0 0 0 0 0 0 0 0 0 0 0 0 0 0 0 0.25 0"/>
<feBlend mode="normal" in2="shape" result="effect1_innerShadow_1_46"/>
</filter>
</defs>
</svg>
