<svg width="68" height="56" viewBox="0 0 68 56" fill="none" xmlns="http://www.w3.org/2000/svg">
<g filter="url(#filter0_i_1_73)">
<path d="M66.0706 0.211897C65.4009 -0.0706323 64.612 -0.0706323 63.9422 0.211897L2.16939 26.211C0.995973 26.7054 0.520845 27.9068 1.10804 28.8945C1.44229 29.4568 2.07124 29.854 2.806 29.9669L27.3227 33.7207L31.7822 54.358C31.9647 55.204 32.7693 55.8572 33.7803 55.98C33.8921 55.9935 34.0048 56.0002 34.1176 56C35.0181 56.0003 35.8414 55.5722 36.244 54.894L67.1306 2.89575C67.7183 1.90824 67.2438 0.706645 66.0706 0.211897ZM35.1798 47.7382L31.7014 31.6427C31.5216 30.8299 30.7662 30.1941 29.8008 30.0428L10.6703 27.1069L59.6917 6.47371L35.1798 47.7382Z" fill="url(#paint0_linear_1_73)"/>
</g>
<defs>
<filter id="filter0_i_1_73" x="0.856323" y="0" width="66.5265" height="60" filterUnits="userSpaceOnUse" color-interpolation-filters="sRGB">
<feFlood flood-opacity="0" result="BackgroundImageFix"/>
<feBlend mode="normal" in="SourceGraphic" in2="BackgroundImageFix" result="shape"/>
<feColorMatrix in="SourceAlpha" type="matrix" values="0 0 0 0 0 0 0 0 0 0 0 0 0 0 0 0 0 0 127 0" result="hardAlpha"/>
<feOffset dy="4"/>
<feGaussianBlur stdDeviation="2"/>
<feComposite in2="hardAlpha" operator="arithmetic" k2="-1" k3="1"/>
<feColorMatrix type="matrix" values="0 0 0 0 0 0 0 0 0 0 0 0 0 0 0 0 0 0 0.25 0"/>
<feBlend mode="normal" in2="shape" result="effect1_innerShadow_1_73"/>
</filter>
<linearGradient id="paint0_linear_1_73" x1="34.1196" y1="0" x2="34.1196" y2="56" gradientUnits="userSpaceOnUse">
<stop stop-color="#3797CD"/>
<stop offset="1" stop-color="#34B0F6" stop-opacity="0"/>
</linearGradient>
</defs>
</svg>
